<svg width="283" height="49" viewBox="0 0 283 49" fill="none" xmlns="http://www.w3.org/2000/svg">
<path d="M1.55 31.95C1.31667 31.95 1.13333 31.8833 1 31.75C0.866667 31.65 0.866667 31.5667 1 31.5C1.73333 31.3667 2.36667 31.1 2.9 30.7C3.43333 30.2667 3.86667 29.7333 4.2 29.1C4.9 27.9333 5.58333 26.7667 6.25 25.6C6.91667 24.4 7.56667 23.2 8.2 22L13 13.15C13.7667 11.7833 14.4333 10.4667 15 9.2C15.6 7.93333 16.0667 7.01667 16.4 6.45C16.6333 6.01667 17.0333 5.63333 17.6 5.3C18.2 4.93333 18.7833 4.65 19.35 4.45C19.15 4.45 18.95 4.45 18.75 4.45C18.55 4.41667 18.3333 4.4 18.1 4.4C17.0667 4.4 15.9333 4.46667 14.7 4.6C13.5 4.7 12.3167 4.86667 11.15 5.1C10.0167 5.33333 9.01667 5.65 8.15 6.05C7.28333 6.45 6.7 6.93333 6.4 7.5C6.26667 7.8 6.15 8.1 6.05 8.4C5.95 8.7 5.9 9 5.9 9.3C5.9 10.0667 6.16667 10.6167 6.7 10.95C6.73333 10.95 6.75 10.9833 6.75 11.05C6.75 11.1167 6.68333 11.1833 6.55 11.25C6.45 11.3167 6.35 11.3333 6.25 11.3C5.95 11.1333 5.58333 10.7333 5.15 10.1C4.71667 9.43333 4.45 8.88333 4.35 8.45C4.25 8.05 4.2 7.68333 4.2 7.35C4.2 6.48333 4.48333 5.81667 5.05 5.35C5.61667 4.85 6.33333 4.5 7.2 4.3C8.06667 4.06667 8.95 3.93333 9.85 3.9C10.7833 3.83333 11.6 3.8 12.3 3.8C13.3667 3.8 14.6333 3.8 16.1 3.8C17.5667 3.76667 18.9167 3.75 20.15 3.75C20.45 3.75 20.7833 3.75 21.15 3.75C21.5167 3.71667 21.9 3.7 22.3 3.7C23.2 3.7 24.1333 3.75 25.1 3.85C26.0667 3.95 26.95 4.16667 27.75 4.5C28.55 4.83333 29.1667 5.35 29.6 6.05C30.0333 6.78333 30.25 7.58333 30.25 8.45C30.25 9.28333 30.0833 10.1167 29.75 10.95C29.4167 11.7833 29.0167 12.5 28.55 13.1C28.25 13.4667 27.9 13.8333 27.5 14.2C27.1 14.5667 26.65 14.9167 26.15 15.25C25.65 15.5833 25.1 15.9 24.5 16.2C23.9333 16.4667 23.25 16.6833 22.45 16.85C22.4167 16.85 22.3833 16.9 22.35 17C22.35 17.1 22.3833 17.15 22.45 17.15C22.6167 17.1833 22.9 17.2333 23.3 17.3C23.7333 17.3333 24.1167 17.3833 24.45 17.45C25.6167 17.6833 26.5833 18.1833 27.35 18.95C28.15 19.6833 28.55 20.6833 28.55 21.95C28.55 23.3833 28.1667 24.7 27.4 25.9C26.6667 27.1 25.7167 28.1333 24.55 29C23.3833 29.8333 22.1667 30.4833 20.9 30.95C19.3 31.55 17.4667 31.85 15.4 31.85C14.1667 31.85 12.8833 31.7333 11.55 31.5C10.2167 31.2667 9 30.8667 7.9 30.3C7.66667 30.1667 7.43333 30.0667 7.2 30C6.96667 29.9 6.71667 29.85 6.45 29.85C5.98333 29.85 5.48333 29.9833 4.95 30.25C4.61667 30.3833 4.18333 30.6333 3.65 31C3.11667 31.3667 2.51667 31.6667 1.85 31.9C1.78333 31.9333 1.68333 31.95 1.55 31.95ZM13.8 31.15C14.6667 31.15 15.5333 31.0667 16.4 30.9C17.2667 30.7 18.05 30.4667 18.75 30.2C19.9833 29.7333 21.1167 29.0833 22.15 28.25C23.1833 27.3833 24.0167 26.3667 24.65 25.2C25.3167 24 25.65 22.6667 25.65 21.2C25.65 20.2333 25.4 19.5 24.9 19C24.4 18.4667 23.7667 18.1 23 17.9C22.2333 17.7 21.4333 17.6 20.6 17.6C19.9667 17.6 19.3667 17.6333 18.8 17.7C18.2333 17.7667 17.7167 17.85 17.25 17.95C16.3167 18.1167 15.4833 18.3 14.75 18.5C14.6167 18.4333 14.6333 18.3167 14.8 18.15C14.9667 17.95 15.1833 17.7333 15.45 17.5C15.75 17.2667 15.9833 17.0833 16.15 16.95C16.2167 16.8833 16.35 16.7833 16.55 16.65C16.7833 16.4833 16.9667 16.4 17.1 16.4C18.7333 16.4 20.1833 16.3 21.45 16.1C22.75 15.9 23.8667 15.4167 24.8 14.65C25.7333 13.85 26.5 12.6167 27.1 10.95C27.4 10.0833 27.55 9.23333 27.55 8.4C27.55 7.43333 27.3167 6.6 26.85 5.9C26.3833 5.16666 25.6333 4.73333 24.6 4.6C24.4667 4.56667 24.3167 4.55 24.15 4.55C23.9833 4.55 23.8167 4.55 23.65 4.55C23.0167 4.55 22.3167 4.63333 21.55 4.8C20.8167 4.96666 20.2667 5.28333 19.9 5.75C19.0667 6.85 18.2667 8.1 17.5 9.5C16.7333 10.8667 16 12.2667 15.3 13.7C14.6 15.1 13.9333 16.4167 13.3 17.65C12.5333 19.15 11.75 20.6667 10.95 22.2C10.15 23.7333 9.36667 25.2833 8.6 26.85C8.4 27.25 8.3 27.6333 8.3 28C8.3 28.6667 8.71667 29.3167 9.55 29.95C10.1167 30.3833 10.7667 30.7 11.5 30.9C12.2667 31.0667 13.0333 31.15 13.8 31.15ZM37.5762 31.15C37.2428 31.15 36.9595 31.0833 36.7262 30.95C36.4928 30.8167 36.3762 30.5667 36.3762 30.2C36.3762 29.7333 36.4928 29.2 36.7262 28.6C36.9595 28 37.2262 27.4167 37.5262 26.85C37.8262 26.25 38.0928 25.7667 38.3262 25.4C37.1595 26.6333 35.9428 27.8 34.6762 28.9C34.0428 29.4333 33.3428 29.9333 32.5762 30.4C31.8095 30.8667 30.9928 31.1 30.1262 31.1C29.7928 31.1 29.5595 31 29.4262 30.8C29.2928 30.5667 29.2262 30.3 29.2262 30C29.2262 29.8333 29.2428 29.7167 29.2762 29.65C29.4428 28.35 29.8595 27 30.5262 25.6C31.1928 24.2 32.0095 22.8833 32.9762 21.65C33.9428 20.4167 34.9262 19.4167 35.9262 18.65C37.0595 17.7833 38.3095 17.35 39.6762 17.35H45.4262C45.5928 17.35 45.6762 17.4167 45.6762 17.55C45.6762 17.8167 45.5262 17.95 45.2262 17.95C44.8928 17.95 44.5595 18.1667 44.2262 18.6C43.8928 19 43.6428 19.3333 43.4762 19.6C43.2428 19.9667 42.8762 20.5833 42.3762 21.45C41.8762 22.3167 41.3595 23.2667 40.8262 24.3C40.3262 25.3 39.8928 26.2333 39.5262 27.1C39.1595 27.9667 38.9762 28.6 38.9762 29C38.9762 29.4667 39.2095 29.7 39.6762 29.7C40.1762 29.7 40.7428 29.4667 41.3762 29C42.0095 28.5333 42.6428 27.9667 43.2762 27.3C43.9428 26.6 44.5428 25.9167 45.0762 25.25C45.6428 24.55 46.0928 24 46.4262 23.6C46.6262 23.8 46.6095 24.0833 46.3762 24.45C46.1762 24.7833 45.9928 25.05 45.8262 25.25C45.1595 26.1167 44.3928 27.0167 43.5262 27.95C42.6595 28.85 41.7095 29.6167 40.6762 30.25C39.6762 30.85 38.6428 31.15 37.5762 31.15ZM32.1762 29.4C32.5762 29.4 33.1262 29.1167 33.8262 28.55C34.5595 27.95 35.3428 27.2167 36.1762 26.35C37.0095 25.45 37.7928 24.5167 38.5262 23.55C39.2595 22.55 39.8595 21.65 40.3262 20.85C40.8262 20.0167 41.0762 19.3833 41.0762 18.95C41.0762 18.5833 40.9595 18.3333 40.7262 18.2C40.5262 18.0667 40.2595 18 39.9262 18C39.3928 18 38.8095 18.2 38.1762 18.6C37.5762 18.9667 37.0928 19.3333 36.7262 19.7C36.3262 20.0667 35.8428 20.65 35.2762 21.45C34.7428 22.2167 34.2095 23.0667 33.6762 24C33.1428 24.9333 32.6928 25.8333 32.3262 26.7C31.9595 27.5667 31.7762 28.2667 31.7762 28.8C31.7762 29.2 31.9095 29.4 32.1762 29.4ZM29.6234 48.5C28.3568 48.5 27.1401 48.2 25.9734 47.6C24.7734 47.0333 23.8901 46.15 23.3234 44.95C23.1234 44.5167 22.9901 44.05 22.9234 43.55C22.8568 43.0833 22.8234 42.6167 22.8234 42.15V41.6C22.8234 41.3333 22.8568 41.0833 22.9234 40.85C22.9901 40.65 23.1568 40.55 23.4234 40.55C23.5234 40.55 23.5734 40.5833 23.5734 40.65C23.5734 40.85 23.5568 41.05 23.5234 41.25C23.4568 41.45 23.4234 41.6667 23.4234 41.9C23.4234 43.4333 23.9234 44.6 24.9234 45.4C25.8901 46.2 27.1068 46.6 28.5734 46.6C29.1734 46.6 29.7901 46.5333 30.4234 46.4C31.0568 46.2667 31.6568 46.0833 32.2234 45.85C34.3234 44.95 36.1568 43.6833 37.7234 42.05C39.2901 40.4167 40.6568 38.5667 41.8234 36.5C42.9901 34.4333 44.0234 32.3167 44.9234 30.15C45.8901 27.7833 46.8068 25.45 47.6734 23.15C48.5734 20.8167 49.5734 18.5333 50.6734 16.3C51.7068 14.2333 52.8068 12.6833 53.9734 11.65C55.1401 10.6167 56.3068 10.1 57.4734 10.1C57.7734 10.1 58.0568 10.1833 58.3234 10.35C58.6234 10.5167 58.7568 10.7833 58.7234 11.15L58.6234 12.55C58.6234 12.65 58.5568 12.7 58.4234 12.7C58.4234 12.7 58.4068 12.7 58.3734 12.7C58.3734 12.7 58.3734 12.6833 58.3734 12.65C58.3734 12.25 58.2234 11.9833 57.9234 11.85C57.6568 11.6833 57.3901 11.6 57.1234 11.6C55.9901 11.6 54.9734 12 54.0734 12.8C53.2068 13.5667 52.4401 14.5667 51.7734 15.8C51.1068 17.0333 50.5401 18.3333 50.0734 19.7C49.6068 21.0333 49.2234 22.2667 48.9234 23.4C49.1568 23.2 49.5734 22.7833 50.1734 22.15C50.8068 21.5167 51.5401 20.8333 52.3734 20.1C53.2068 19.3667 54.0568 18.7333 54.9234 18.2C55.7901 17.6667 56.5901 17.4 57.3234 17.4C57.7568 17.4 58.0068 17.6 58.0734 18C58.1734 18.3667 58.1901 18.7167 58.1234 19.05C57.9568 20.2833 57.5401 21.6167 56.8734 23.05C56.2068 24.4833 55.3401 25.85 54.2734 27.15C53.2401 28.4167 52.0734 29.45 50.7734 30.25C49.5068 31.05 48.1734 31.45 46.7734 31.45C46.6068 31.45 46.3734 31.4333 46.0734 31.4C45.8068 31.4 45.6401 31.3667 45.5734 31.3C44.8734 33.4 43.9734 35.55 42.8734 37.75C41.7734 39.95 40.4568 41.9333 38.9234 43.7C37.3568 45.5 35.5068 46.85 33.3734 47.75C32.2401 48.25 30.9901 48.5 29.6234 48.5ZM47.5234 30.6C48.0234 30.6 48.5901 30.4 49.2234 30C49.8901 29.5667 50.3901 29.1833 50.7234 28.85C51.1234 28.4833 51.5901 27.9167 52.1234 27.15C52.6901 26.35 53.2401 25.4833 53.7734 24.55C54.3401 23.6167 54.8068 22.7167 55.1734 21.85C55.5401 20.9833 55.7234 20.2833 55.7234 19.75C55.7234 19.5833 55.6901 19.4333 55.6234 19.3C55.5568 19.1667 55.4401 19.1 55.2734 19.1C54.9734 19.1 54.5734 19.2833 54.0734 19.65C53.5734 20.0167 53.0401 20.4667 52.4734 21C51.9401 21.5 51.4401 22 50.9734 22.5C50.5068 22.9667 50.1734 23.3167 49.9734 23.55C49.6401 23.95 49.1901 24.5333 48.6234 25.3C48.0568 26.0667 47.5568 26.85 47.1234 27.65C46.6901 28.4167 46.4734 29.0667 46.4734 29.6C46.4734 30.2667 46.8234 30.6 47.5234 30.6ZM61.0176 31.15C60.6842 31.15 60.4009 31.0833 60.1676 30.95C59.9342 30.8167 59.8176 30.5667 59.8176 30.2C59.8176 29.7333 59.9342 29.1833 60.1676 28.55C60.4342 27.9167 60.7176 27.2833 61.0176 26.65C61.3176 26.0167 61.5676 25.5 61.7676 25.1C62.1676 24.3333 62.5509 23.5667 62.9176 22.8C63.2842 22.0333 63.6009 21.3833 63.8676 20.85C64.1342 20.35 64.2676 20.0167 64.2676 19.85C64.2676 19.5833 64.0676 19.5833 63.6676 19.85C63.3009 20.1167 62.9509 20.3833 62.6176 20.65C61.8842 21.35 61.1176 22.1833 60.3176 23.15C59.5176 24.0833 58.9009 24.8333 58.4676 25.4C58.3676 25.5333 58.2842 25.6 58.2176 25.6C58.1509 25.6 58.1176 25.5167 58.1176 25.35C58.1176 25.0833 58.2009 24.8333 58.3676 24.6C58.8342 23.9333 59.3842 23.2 60.0176 22.4C60.6509 21.6 61.3009 20.8333 61.9676 20.1C62.6009 19.4333 63.2509 18.7833 63.9176 18.15C64.5842 17.5167 65.4342 17.2 66.4676 17.2C67.1676 17.2 67.5176 17.4667 67.5176 18C67.5176 18.4667 67.3176 19 66.9176 19.6C66.6842 19.9667 66.3176 20.5833 65.8176 21.45C65.3176 22.3167 64.8009 23.2667 64.2676 24.3C63.7676 25.3 63.3342 26.2333 62.9676 27.1C62.6009 27.9667 62.4176 28.6 62.4176 29C62.4176 29.4667 62.6509 29.7 63.1176 29.7C63.4842 29.7 63.9342 29.5167 64.4676 29.15C65.0009 28.75 65.5509 28.2833 66.1176 27.75C67.1509 26.75 68.0842 25.6667 68.9176 24.5C69.7842 23.3 70.5176 22.15 71.1176 21.05C71.7509 19.95 72.2509 19.05 72.6176 18.35C72.6842 18.2167 72.7509 18.0667 72.8176 17.9C72.9176 17.7 73.0676 17.5833 73.2676 17.55C73.4676 17.5167 73.9009 17.5 74.5676 17.5C75.2342 17.5 75.8509 17.3667 76.4176 17.1H76.5176C76.6176 17.1 76.6676 17.15 76.6676 17.25C76.6676 17.5167 76.4509 17.7167 76.0176 17.85C75.6176 17.9833 75.1509 18.3833 74.6176 19.05C74.1176 19.7167 73.6176 20.5333 73.1176 21.5C72.6176 22.4333 72.1676 23.4 71.7676 24.4C71.3676 25.4 71.0676 26.3167 70.8676 27.15C70.6676 27.9833 70.6176 28.6 70.7176 29C70.8509 29.4667 71.0842 29.7 71.4176 29.7C71.8509 29.7 72.4509 29.4333 73.2176 28.9C74.0176 28.3667 74.8342 27.7333 75.6676 27C76.5009 26.2333 77.1842 25.5333 77.7176 24.9C77.9509 24.6333 78.1676 24.3667 78.3676 24.1C78.5676 23.8333 78.7009 23.6667 78.7676 23.6C78.8009 23.6333 78.8342 23.7 78.8676 23.8C78.9009 23.8667 78.9176 23.9333 78.9176 24C78.8842 24.2333 78.8009 24.4667 78.6676 24.7C78.5342 24.9 78.3842 25.0833 78.2176 25.25C77.5842 26.0833 76.8176 26.9667 75.9176 27.9C75.0509 28.8 74.1009 29.5667 73.0676 30.2C72.0676 30.8333 71.0342 31.15 69.9676 31.15C69.6342 31.15 69.2509 31.0667 68.8176 30.9C68.4176 30.7333 68.2176 30.3667 68.2176 29.8C68.2176 29.3667 68.3342 28.7833 68.5676 28.05C68.8009 27.2833 69.0509 26.5333 69.3176 25.8C69.6176 25.0333 69.8676 24.4667 70.0676 24.1C69.6342 24.7333 69.1009 25.45 68.4676 26.25C67.8676 27.0167 67.2509 27.7 66.6176 28.3C65.7842 29.1 64.8842 29.7833 63.9176 30.35C62.9842 30.8833 62.0176 31.15 61.0176 31.15ZM78.1465 31.7C78.0132 31.7 78.0132 31.5667 78.1465 31.3C78.3132 31 78.4632 30.6667 78.5965 30.3C78.7632 29.9333 78.9298 29.5333 79.0965 29.1C79.4298 28.3 79.7965 27.4 80.1965 26.4C80.5965 25.4 80.9798 24.4333 81.3465 23.5C81.7132 22.5333 82.0298 21.7167 82.2965 21.05C82.5965 20.35 82.7965 19.9 82.8965 19.7C82.4298 20.2 81.8632 20.8333 81.1965 21.6C80.5632 22.3333 79.9632 23.05 79.3965 23.75C78.8298 24.45 78.3965 25 78.0965 25.4C77.9965 25.5333 77.9132 25.6 77.8465 25.6C77.7798 25.6 77.7465 25.5167 77.7465 25.35C77.7465 25.0833 77.8298 24.8333 77.9965 24.6C78.6298 23.8 79.3298 22.9 80.0965 21.9C80.8965 20.9 81.6132 19.9833 82.2465 19.15C82.8798 18.2833 83.2798 17.7167 83.4465 17.45C83.8132 17.3833 84.3465 17.2833 85.0465 17.15C85.7798 17.0167 86.2798 16.8333 86.5465 16.6C86.6465 16.5 86.7465 16.45 86.8465 16.45C86.9132 16.45 86.9465 16.5167 86.9465 16.65C86.9798 16.75 86.9465 16.8667 86.8465 17C86.6465 17.2 86.3465 17.6333 85.9465 18.3C85.5798 18.9667 85.1632 19.7333 84.6965 20.6C84.2298 21.4667 83.7798 22.3 83.3465 23.1C83.6798 22.6 84.1132 22.0167 84.6465 21.35C85.2132 20.65 85.8298 19.9833 86.4965 19.35C87.1632 18.6833 87.8298 18.1333 88.4965 17.7C89.1965 17.2667 89.8465 17.05 90.4465 17.05C90.8798 17.05 91.2465 17.15 91.5465 17.35C91.8465 17.5167 92.0798 17.8333 92.2465 18.3C92.3465 18.5333 92.3965 18.8 92.3965 19.1C92.3965 19.6667 92.2465 20.2167 91.9465 20.75C91.6798 21.25 91.4798 21.6333 91.3465 21.9C91.3132 22 91.1965 22.1 90.9965 22.2C90.7965 22.2667 90.7132 22.2333 90.7465 22.1C90.7798 21.9333 90.7965 21.7667 90.7965 21.6C90.8298 21.4333 90.8465 21.25 90.8465 21.05C90.8465 20.4833 90.7298 19.9667 90.4965 19.5C90.2965 19.0333 89.9132 18.8 89.3465 18.8C88.8132 18.8 88.1632 19.1333 87.3965 19.8C86.6298 20.4667 85.8632 21.2333 85.0965 22.1C84.1298 23.2333 83.3632 24.3167 82.7965 25.35C82.2298 26.35 81.7632 27.3333 81.3965 28.3C81.1965 28.8333 80.9965 29.3667 80.7965 29.9C80.5965 30.4 80.4465 30.8 80.3465 31.1C79.9132 31.1333 79.4798 31.2333 79.0465 31.4C78.6132 31.6 78.3132 31.7 78.1465 31.7ZM94.2695 31.15C93.9362 31.15 93.6529 31.0833 93.4195 30.95C93.1862 30.8167 93.0695 30.5667 93.0695 30.2C93.0695 29.7333 93.1862 29.1833 93.4195 28.55C93.6862 27.9167 93.9695 27.2833 94.2695 26.65C94.5695 26.0167 94.8195 25.5 95.0195 25.1C95.4195 24.3333 95.8029 23.5667 96.1695 22.8C96.5362 22.0333 96.8529 21.3833 97.1195 20.85C97.3862 20.35 97.5195 20.0167 97.5195 19.85C97.5195 19.5833 97.3195 19.5833 96.9195 19.85C96.5529 20.1167 96.2029 20.3833 95.8695 20.65C95.1362 21.35 94.3695 22.1833 93.5695 23.15C92.7695 24.0833 92.1529 24.8333 91.7195 25.4C91.6195 25.5333 91.5362 25.6 91.4695 25.6C91.4029 25.6 91.3695 25.5167 91.3695 25.35C91.3695 25.0833 91.4529 24.8333 91.6195 24.6C92.0862 23.9333 92.6362 23.2 93.2695 22.4C93.9029 21.6 94.5529 20.8333 95.2195 20.1C95.8529 19.4333 96.5029 18.7833 97.1695 18.15C97.8362 17.5167 98.6862 17.2 99.7195 17.2C100.42 17.2 100.77 17.4667 100.77 18C100.77 18.4667 100.57 19 100.17 19.6C99.9362 19.9667 99.5695 20.5833 99.0695 21.45C98.5695 22.3167 98.0529 23.2667 97.5195 24.3C97.0195 25.3 96.5862 26.2333 96.2195 27.1C95.8529 27.9667 95.6695 28.6 95.6695 29C95.6695 29.4667 95.9029 29.7 96.3695 29.7C96.7362 29.7 97.1862 29.5167 97.7195 29.15C98.2529 28.75 98.8029 28.2833 99.3695 27.75C100.403 26.75 101.336 25.6667 102.17 24.5C103.036 23.3 103.77 22.15 104.37 21.05C105.003 19.95 105.503 19.05 105.87 18.35C105.936 18.2167 106.003 18.0667 106.07 17.9C106.17 17.7 106.32 17.5833 106.52 17.55C106.72 17.5167 107.153 17.5 107.82 17.5C108.486 17.5 109.103 17.3667 109.67 17.1H109.77C109.87 17.1 109.92 17.15 109.92 17.25C109.92 17.5167 109.703 17.7167 109.27 17.85C108.87 17.9833 108.403 18.3833 107.87 19.05C107.37 19.7167 106.87 20.5333 106.37 21.5C105.87 22.4333 105.42 23.4 105.02 24.4C104.62 25.4 104.32 26.3167 104.12 27.15C103.92 27.9833 103.87 28.6 103.97 29C104.103 29.4667 104.336 29.7 104.67 29.7C105.103 29.7 105.703 29.4333 106.47 28.9C107.27 28.3667 108.086 27.7333 108.92 27C109.753 26.2333 110.436 25.5333 110.97 24.9C111.203 24.6333 111.42 24.3667 111.62 24.1C111.82 23.8333 111.953 23.6667 112.02 23.6C112.053 23.6333 112.086 23.7 112.12 23.8C112.153 23.8667 112.17 23.9333 112.17 24C112.136 24.2333 112.053 24.4667 111.92 24.7C111.786 24.9 111.636 25.0833 111.47 25.25C110.836 26.0833 110.07 26.9667 109.17 27.9C108.303 28.8 107.353 29.5667 106.32 30.2C105.32 30.8333 104.286 31.15 103.22 31.15C102.886 31.15 102.503 31.0667 102.07 30.9C101.67 30.7333 101.47 30.3667 101.47 29.8C101.47 29.3667 101.586 28.7833 101.82 28.05C102.053 27.2833 102.303 26.5333 102.57 25.8C102.87 25.0333 103.12 24.4667 103.32 24.1C102.886 24.7333 102.353 25.45 101.72 26.25C101.12 27.0167 100.503 27.7 99.8695 28.3C99.0362 29.1 98.1362 29.7833 97.1695 30.35C96.2362 30.8833 95.2695 31.15 94.2695 31.15ZM111.398 31.75C111.265 31.75 111.265 31.6 111.398 31.3C111.565 31 111.715 30.6667 111.848 30.3C112.015 29.9333 112.182 29.5333 112.348 29.1C112.682 28.3 113.048 27.4 113.448 26.4C113.848 25.4 114.232 24.4333 114.598 23.5C114.965 22.5333 115.282 21.7167 115.548 21.05C115.848 20.35 116.048 19.9 116.148 19.7C115.682 20.2 115.115 20.8333 114.448 21.6C113.815 22.3333 113.215 23.05 112.648 23.75C112.082 24.45 111.648 25 111.348 25.4C111.248 25.5333 111.165 25.6 111.098 25.6C111.032 25.6 110.998 25.5167 110.998 25.35C110.998 25.0833 111.082 24.8333 111.248 24.6C111.882 23.8 112.582 22.9 113.348 21.9C114.148 20.9 114.865 19.9833 115.498 19.15C116.132 18.2833 116.532 17.7167 116.698 17.45C117.065 17.3833 117.598 17.2833 118.298 17.15C119.032 17.0167 119.532 16.8333 119.798 16.6C119.898 16.5 119.998 16.45 120.098 16.45C120.165 16.45 120.198 16.5167 120.198 16.65C120.232 16.75 120.198 16.8667 120.098 17C119.898 17.2333 119.548 17.7833 119.048 18.65C118.582 19.4833 118.065 20.4167 117.498 21.45C116.965 22.4833 116.465 23.4167 115.998 24.25C116.398 23.7167 116.832 23.2 117.298 22.7C117.765 22.2 118.215 21.7167 118.648 21.25C119.048 20.85 119.598 20.35 120.298 19.75C120.998 19.15 121.732 18.6 122.498 18.1C123.265 17.6 123.932 17.3167 124.498 17.25C124.632 17.2167 124.748 17.2 124.848 17.2C124.982 17.2 125.082 17.2 125.148 17.2C125.882 17.2 126.248 17.4667 126.248 18C126.248 18.4 126.032 18.9333 125.598 19.6C125.365 19.9667 124.998 20.5833 124.498 21.45C124.032 22.2833 123.548 23.2 123.048 24.2C122.582 25.1667 122.165 26.0833 121.798 26.95C121.465 27.7833 121.298 28.4 121.298 28.8C121.298 29.2667 121.532 29.5 121.998 29.5C122.565 29.5 123.182 29.2167 123.848 28.65C124.548 28.0833 125.298 27.3667 126.098 26.5C126.898 25.6 127.698 24.65 128.498 23.65C128.565 23.7167 128.598 23.8333 128.598 24C128.598 24.2333 128.515 24.4667 128.348 24.7C128.215 24.9 128.082 25.0833 127.948 25.25C127.615 25.6833 127.165 26.2333 126.598 26.9C126.065 27.5333 125.515 28.1667 124.948 28.8C124.382 29.4 123.865 29.8833 123.398 30.25C123.065 30.4833 122.632 30.7333 122.098 31C121.565 31.2667 121.032 31.4 120.498 31.4C119.898 31.4 119.482 31.25 119.248 30.95C119.015 30.6167 118.898 30.2167 118.898 29.75C118.898 29.2167 118.998 28.65 119.198 28.05C119.398 27.45 119.615 26.8833 119.848 26.35C120.115 25.7833 120.315 25.3667 120.448 25.1C121.048 23.9333 121.598 22.8333 122.098 21.8C122.598 20.7667 122.948 20.0333 123.148 19.6C123.248 19.4 123.298 19.2333 123.298 19.1C123.298 18.8667 123.115 18.85 122.748 19.05C122.382 19.25 121.932 19.55 121.398 19.95C120.898 20.35 120.432 20.75 119.998 21.15C119.565 21.5167 119.282 21.7667 119.148 21.9C117.915 23.2 116.832 24.65 115.898 26.25C114.998 27.8167 114.232 29.4333 113.598 31.1C113.165 31.1333 112.732 31.25 112.298 31.45C111.865 31.65 111.565 31.75 111.398 31.75ZM140.05 32C139.016 32 138.033 31.7 137.1 31.1C136.166 30.5 135.466 29.6167 135 28.45C134.833 28.0167 134.716 27.55 134.65 27.05C134.616 26.55 134.6 26.0667 134.6 25.6V24.95C134.6 24.7167 134.616 24.5 134.65 24.3C134.716 24.1 134.85 24 135.05 24C135.116 24 135.15 24.0333 135.15 24.1C135.15 24.3 135.133 24.5 135.1 24.7C135.1 24.9 135.1 25.1 135.1 25.3C135.1 26.8667 135.483 28.05 136.25 28.85C137.05 29.65 138.033 30.05 139.2 30.05C140.366 30.05 141.5 29.7167 142.6 29.05C143.7 28.3833 144.716 27.5333 145.65 26.5C146.416 25.6667 147.166 24.5833 147.9 23.25C148.666 21.9167 149.45 20.4833 150.25 18.95C149.183 18.9833 148.066 19.0333 146.9 19.1C145.733 19.1333 144.666 19.2333 143.7 19.4C143.4 19.4333 143.316 19.35 143.45 19.15C143.583 18.95 143.833 18.7 144.2 18.4C144.566 18.1 144.95 17.8333 145.35 17.6C145.783 17.3667 146.133 17.2333 146.4 17.2C146.966 17.2333 147.666 17.2667 148.5 17.3C149.366 17.3 150.216 17.3167 151.05 17.35C151.783 16.0167 152.483 14.6667 153.15 13.3C153.85 11.9 154.5 10.6 155.1 9.4C155.433 8.73333 155.866 8.06667 156.4 7.4C156.966 6.7 157.583 6.08333 158.25 5.55C158.95 5.01667 159.666 4.68333 160.4 4.55C158.633 4.61667 156.8 4.66667 154.9 4.7C153.033 4.73333 151.25 4.98333 149.55 5.45C148.783 5.65 148.1 5.91667 147.5 6.25C146.9 6.58333 146.466 7 146.2 7.5C145.933 8 145.8 8.55 145.8 9.15C145.8 9.98333 146.033 10.5833 146.5 10.95C146.533 10.9833 146.55 11.0167 146.55 11.05C146.55 11.1167 146.483 11.1833 146.35 11.25C146.25 11.3167 146.15 11.3333 146.05 11.3C145.75 11.1333 145.383 10.7333 144.95 10.1C144.516 9.43333 144.25 8.88333 144.15 8.45C144.05 8.05 144 7.68333 144 7.35C144 6.48333 144.283 5.81667 144.85 5.35C145.416 4.85 146.133 4.5 147 4.3C147.866 4.06667 148.75 3.93333 149.65 3.9C150.55 3.83333 151.35 3.8 152.05 3.8H157.6C158.866 3.8 159.966 3.8 160.9 3.8C161.833 3.76667 162.583 3.7 163.15 3.6C163.216 3.6 163.266 3.6 163.3 3.6C163.333 3.56667 163.366 3.55 163.4 3.55C163.6 3.55 163.7 3.61667 163.7 3.75C163.7 3.88333 163.633 4.01667 163.5 4.15C163.4 4.25 163.316 4.3 163.25 4.3C162.216 4.4 161.25 4.85 160.35 5.65C159.45 6.45 158.633 7.48333 157.9 8.75C157.7 9.11667 157.333 9.8 156.8 10.8C156.266 11.8 155.683 12.9 155.05 14.1C154.416 15.3 153.833 16.4167 153.3 17.45C153.933 17.4833 154.45 17.5167 154.85 17.55C155.283 17.55 155.533 17.55 155.6 17.55H162.95C163.25 17.55 163.8 17.5 164.6 17.4C165.433 17.3 166.066 17.15 166.5 16.95C167.4 15.2167 168.316 13.5 169.25 11.8C170.183 10.1 171.05 8.58333 171.85 7.25C172.683 5.88333 173.333 4.9 173.8 4.3C174.366 4.06667 175 3.78333 175.7 3.45C176.433 3.11667 177.15 2.81666 177.85 2.55C178.583 2.28333 179.233 2.15 179.8 2.15C179.966 2.15 180.133 2.2 180.3 2.3C180.5 2.4 180.6 2.5 180.6 2.6C180.6 2.76667 180.266 2.85 179.6 2.85C179.266 2.85 178.916 2.91667 178.55 3.05C178.183 3.15 177.716 3.5 177.15 4.1C176.683 4.56666 176.066 5.36666 175.3 6.5C174.566 7.6 173.766 8.9 172.9 10.4C172.033 11.8667 171.15 13.4167 170.25 15.05C169.383 16.6833 168.566 18.2833 167.8 19.85C167.033 21.3833 166.383 22.7833 165.85 24.05C165.316 25.2833 164.966 26.2333 164.8 26.9C164.766 27.1333 164.716 27.4 164.65 27.7C164.616 27.9667 164.6 28.2333 164.6 28.5C164.6 29.0333 164.733 29.5 165 29.9C165.266 30.3 165.766 30.5 166.5 30.5C167.033 30.5 167.566 30.4 168.1 30.2C168.666 30 169.166 29.7833 169.6 29.55C170.8 28.8833 171.883 27.9833 172.85 26.85C173.816 25.6833 174.6 24.7 175.2 23.9C175.3 23.7667 175.366 23.7 175.4 23.7C175.5 23.7 175.55 23.8167 175.55 24.05C175.55 24.25 175.5 24.4333 175.4 24.6C174.766 25.5 173.933 26.55 172.9 27.75C171.866 28.9167 170.666 29.8833 169.3 30.65C168.233 31.2167 167.016 31.5 165.65 31.5C164.616 31.5 163.716 31.1333 162.95 30.4C162.216 29.6333 161.85 28.7167 161.85 27.65C161.85 27.1167 161.95 26.5833 162.15 26.05C162.45 25.2833 162.933 24.1833 163.6 22.75C164.3 21.3167 165.083 19.7333 165.95 18C165.616 18.3 165.233 18.5667 164.8 18.8C164.366 19.0333 163.95 19.1333 163.55 19.1C162.516 19 161.333 18.95 160 18.95C158.7 18.9167 157.016 18.9 154.95 18.9H152.55C151.616 20.8 150.65 22.6667 149.65 24.5C148.65 26.3 147.616 27.7833 146.55 28.95C145.716 29.85 144.716 30.5833 143.55 31.15C142.383 31.7167 141.216 32 140.05 32ZM181.326 31.15C180.993 31.15 180.71 31.0833 180.476 30.95C180.243 30.8167 180.126 30.5667 180.126 30.2C180.126 29.7333 180.243 29.2 180.476 28.6C180.71 28 180.976 27.4167 181.276 26.85C181.576 26.25 181.843 25.7667 182.076 25.4C180.91 26.6333 179.693 27.8 178.426 28.9C177.793 29.4333 177.093 29.9333 176.326 30.4C175.56 30.8667 174.743 31.1 173.876 31.1C173.543 31.1 173.31 31 173.176 30.8C173.043 30.5667 172.976 30.3 172.976 30C172.976 29.8333 172.993 29.7167 173.026 29.65C173.193 28.35 173.61 27 174.276 25.6C174.943 24.2 175.76 22.8833 176.726 21.65C177.693 20.4167 178.676 19.4167 179.676 18.65C180.81 17.7833 182.06 17.35 183.426 17.35H189.176C189.343 17.35 189.426 17.4167 189.426 17.55C189.426 17.8167 189.276 17.95 188.976 17.95C188.643 17.95 188.31 18.1667 187.976 18.6C187.643 19 187.393 19.3333 187.226 19.6C186.993 19.9667 186.626 20.5833 186.126 21.45C185.626 22.3167 185.11 23.2667 184.576 24.3C184.076 25.3 183.643 26.2333 183.276 27.1C182.91 27.9667 182.726 28.6 182.726 29C182.726 29.4667 182.96 29.7 183.426 29.7C183.926 29.7 184.493 29.4667 185.126 29C185.76 28.5333 186.393 27.9667 187.026 27.3C187.693 26.6 188.293 25.9167 188.826 25.25C189.393 24.55 189.843 24 190.176 23.6C190.376 23.8 190.36 24.0833 190.126 24.45C189.926 24.7833 189.743 25.05 189.576 25.25C188.91 26.1167 188.143 27.0167 187.276 27.95C186.41 28.85 185.46 29.6167 184.426 30.25C183.426 30.85 182.393 31.15 181.326 31.15ZM175.926 29.4C176.326 29.4 176.876 29.1167 177.576 28.55C178.31 27.95 179.093 27.2167 179.926 26.35C180.76 25.45 181.543 24.5167 182.276 23.55C183.01 22.55 183.61 21.65 184.076 20.85C184.576 20.0167 184.826 19.3833 184.826 18.95C184.826 18.5833 184.71 18.3333 184.476 18.2C184.276 18.0667 184.01 18 183.676 18C183.143 18 182.56 18.2 181.926 18.6C181.326 18.9667 180.843 19.3333 180.476 19.7C180.076 20.0667 179.593 20.65 179.026 21.45C178.493 22.2167 177.96 23.0667 177.426 24C176.893 24.9333 176.443 25.8333 176.076 26.7C175.71 27.5667 175.526 28.2667 175.526 28.8C175.526 29.2 175.66 29.4 175.926 29.4ZM189.523 31.75C189.39 31.75 189.39 31.6 189.523 31.3C189.69 31 189.84 30.6667 189.973 30.3C190.14 29.9333 190.307 29.5333 190.473 29.1C190.807 28.3 191.173 27.4 191.573 26.4C191.973 25.4 192.357 24.4333 192.723 23.5C193.09 22.5333 193.407 21.7167 193.673 21.05C193.973 20.35 194.173 19.9 194.273 19.7C193.807 20.2 193.24 20.8333 192.573 21.6C191.94 22.3333 191.34 23.05 190.773 23.75C190.207 24.45 189.773 25 189.473 25.4C189.373 25.5333 189.29 25.6 189.223 25.6C189.157 25.6 189.123 25.5167 189.123 25.35C189.123 25.0833 189.207 24.8333 189.373 24.6C190.007 23.8 190.707 22.9 191.473 21.9C192.273 20.9 192.99 19.9833 193.623 19.15C194.257 18.2833 194.657 17.7167 194.823 17.45C195.19 17.3833 195.723 17.2833 196.423 17.15C197.157 17.0167 197.657 16.8333 197.923 16.6C198.023 16.5 198.123 16.45 198.223 16.45C198.29 16.45 198.323 16.5167 198.323 16.65C198.357 16.75 198.323 16.8667 198.223 17C198.023 17.2333 197.673 17.7833 197.173 18.65C196.707 19.4833 196.19 20.4167 195.623 21.45C195.09 22.4833 194.59 23.4167 194.123 24.25C194.523 23.7167 194.957 23.2 195.423 22.7C195.89 22.2 196.34 21.7167 196.773 21.25C197.173 20.85 197.723 20.35 198.423 19.75C199.123 19.15 199.857 18.6 200.623 18.1C201.39 17.6 202.057 17.3167 202.623 17.25C202.757 17.2167 202.873 17.2 202.973 17.2C203.107 17.2 203.207 17.2 203.273 17.2C204.007 17.2 204.373 17.4667 204.373 18C204.373 18.4 204.157 18.9333 203.723 19.6C203.49 19.9667 203.123 20.5833 202.623 21.45C202.157 22.2833 201.673 23.2 201.173 24.2C200.707 25.1667 200.29 26.0833 199.923 26.95C199.59 27.7833 199.423 28.4 199.423 28.8C199.423 29.2667 199.657 29.5 200.123 29.5C200.69 29.5 201.307 29.2167 201.973 28.65C202.673 28.0833 203.423 27.3667 204.223 26.5C205.023 25.6 205.823 24.65 206.623 23.65C206.69 23.7167 206.723 23.8333 206.723 24C206.723 24.2333 206.64 24.4667 206.473 24.7C206.34 24.9 206.207 25.0833 206.073 25.25C205.74 25.6833 205.29 26.2333 204.723 26.9C204.19 27.5333 203.64 28.1667 203.073 28.8C202.507 29.4 201.99 29.8833 201.523 30.25C201.19 30.4833 200.757 30.7333 200.223 31C199.69 31.2667 199.157 31.4 198.623 31.4C198.023 31.4 197.607 31.25 197.373 30.95C197.14 30.6167 197.023 30.2167 197.023 29.75C197.023 29.2167 197.123 28.65 197.323 28.05C197.523 27.45 197.74 26.8833 197.973 26.35C198.24 25.7833 198.44 25.3667 198.573 25.1C199.173 23.9333 199.723 22.8333 200.223 21.8C200.723 20.7667 201.073 20.0333 201.273 19.6C201.373 19.4 201.423 19.2333 201.423 19.1C201.423 18.8667 201.24 18.85 200.873 19.05C200.507 19.25 200.057 19.55 199.523 19.95C199.023 20.35 198.557 20.75 198.123 21.15C197.69 21.5167 197.407 21.7667 197.273 21.9C196.04 23.2 194.957 24.65 194.023 26.25C193.123 27.8167 192.357 29.4333 191.723 31.1C191.29 31.1333 190.857 31.25 190.423 31.45C189.99 31.65 189.69 31.75 189.523 31.75ZM212.527 31.15C212.194 31.15 211.911 31.0833 211.677 30.95C211.444 30.8167 211.327 30.5667 211.327 30.2C211.327 29.7333 211.444 29.2 211.677 28.6C211.911 28 212.177 27.4167 212.477 26.85C212.777 26.25 213.044 25.7667 213.277 25.4C212.111 26.6333 210.894 27.8 209.627 28.9C208.994 29.4333 208.294 29.9333 207.527 30.4C206.761 30.8667 205.944 31.1 205.077 31.1C204.744 31.1 204.511 31 204.377 30.8C204.244 30.5667 204.177 30.3 204.177 30C204.177 29.8333 204.194 29.7167 204.227 29.65C204.394 28.35 204.811 27 205.477 25.6C206.144 24.2 206.961 22.8833 207.927 21.65C208.894 20.4167 209.877 19.4167 210.877 18.65C211.644 18.0833 212.377 17.7333 213.077 17.6C213.777 17.4333 214.544 17.35 215.377 17.35H217.027C217.561 16.45 218.111 15.45 218.677 14.35C219.277 13.2167 219.861 12.1 220.427 11C221.027 9.9 221.577 8.93333 222.077 8.1C223.444 5.76667 224.944 3.9 226.577 2.5C228.244 1.1 230.094 0.399998 232.127 0.399998C232.561 0.399998 232.961 0.533331 233.327 0.799998C233.694 1.03333 233.861 1.4 233.827 1.9L233.727 3.7C233.727 3.73333 233.694 3.78333 233.627 3.85C233.561 3.88333 233.511 3.9 233.477 3.9C233.444 3.9 233.394 3.86666 233.327 3.8C233.227 3.2 232.927 2.75 232.427 2.45C231.927 2.11667 231.311 1.95 230.577 1.95C230.344 1.95 230.077 1.96666 229.777 2C229.511 2.03333 229.244 2.1 228.977 2.2C228.044 2.53333 227.161 3.21666 226.327 4.25C225.494 5.25 224.594 6.58333 223.627 8.25C223.294 8.88333 222.861 9.71667 222.327 10.75C221.794 11.75 221.227 12.8333 220.627 14C220.061 15.1667 219.511 16.3 218.977 17.4C218.477 18.5 218.044 19.4333 217.677 20.2C217.511 20.6 217.227 21.2167 216.827 22.05C216.427 22.85 215.994 23.7333 215.527 24.7C215.094 25.6333 214.711 26.5 214.377 27.3C214.077 28.1 213.927 28.6667 213.927 29C213.927 29.4667 214.127 29.7 214.527 29.7C214.927 29.7 215.461 29.4667 216.127 29C216.794 28.5 217.477 27.9 218.177 27.2C218.911 26.4667 219.561 25.7667 220.127 25.1C220.727 24.4333 221.144 23.9333 221.377 23.6C221.477 23.7 221.527 23.8167 221.527 23.95C221.527 24.1833 221.427 24.4167 221.227 24.65C221.061 24.8833 220.911 25.0833 220.777 25.25C220.177 26.05 219.427 26.9167 218.527 27.85C217.661 28.75 216.711 29.5333 215.677 30.2C214.644 30.8333 213.594 31.15 212.527 31.15ZM207.127 29.4C207.527 29.4 208.077 29.1167 208.777 28.55C209.511 27.95 210.294 27.2167 211.127 26.35C211.961 25.45 212.744 24.5167 213.477 23.55C214.211 22.55 214.811 21.65 215.277 20.85C215.777 20.0167 216.027 19.3833 216.027 18.95C216.027 18.5833 215.911 18.3333 215.677 18.2C215.477 18.0667 215.211 18 214.877 18C214.344 18 213.761 18.2 213.127 18.6C212.527 18.9667 212.044 19.3333 211.677 19.7C211.277 20.0667 210.794 20.65 210.227 21.45C209.694 22.2167 209.161 23.0667 208.627 24C208.094 24.9333 207.644 25.8333 207.277 26.7C206.911 27.5667 206.727 28.2667 206.727 28.8C206.727 29.2 206.861 29.4 207.127 29.4ZM222.525 31.4C221.291 31.4 220.425 31.1667 219.925 30.7C219.425 30.2333 219.175 29.6333 219.175 28.9C219.175 27.9333 219.491 26.8667 220.125 25.7C220.758 24.5 221.358 23.5 221.925 22.7C222.491 21.9333 223.125 21.2167 223.825 20.55C224.558 19.85 225.341 19.25 226.175 18.75C226.708 18.4167 227.425 18.0667 228.325 17.7C229.258 17.3 230.041 17.1 230.675 17.1C231.441 17.1 231.975 17.2833 232.275 17.65C232.575 17.9833 232.725 18.4 232.725 18.9C232.725 19.3 232.658 19.7167 232.525 20.15C232.391 20.55 232.241 20.9333 232.075 21.3C231.975 21.5 231.825 21.65 231.625 21.75C231.425 21.8167 231.325 21.7833 231.325 21.65C231.325 21.4833 231.341 21.3333 231.375 21.2C231.408 21.0667 231.425 20.9167 231.425 20.75C231.425 20.1167 231.275 19.5 230.975 18.9C230.708 18.2667 230.291 17.95 229.725 17.95C229.125 17.95 228.475 18.1667 227.775 18.6C227.075 19 226.591 19.35 226.325 19.65C225.458 20.55 224.608 21.6667 223.775 23C222.975 24.3333 222.391 25.6 222.025 26.8C221.791 27.5 221.675 28.1 221.675 28.6C221.675 29.1667 221.825 29.5667 222.125 29.8C222.425 30.0333 222.791 30.15 223.225 30.15C223.558 30.15 223.908 30.1 224.275 30C224.675 29.9 225.091 29.7833 225.525 29.65C226.525 29.3167 227.525 28.8 228.525 28.1C229.558 27.3667 230.491 26.6 231.325 25.8C232.158 24.9667 232.791 24.25 233.225 23.65C233.291 23.7167 233.325 23.8167 233.325 23.95C233.325 24.1167 233.258 24.3167 233.125 24.55C232.991 24.75 232.891 24.9167 232.825 25.05C232.125 25.9833 231.208 26.95 230.075 27.95C228.941 28.9167 227.708 29.7333 226.375 30.4C225.075 31.0667 223.791 31.4 222.525 31.4ZM232.639 31.7C232.505 31.7 232.505 31.5667 232.639 31.3C232.805 31 232.955 30.6667 233.089 30.3C233.255 29.9333 233.422 29.5333 233.589 29.1C233.922 28.3 234.289 27.4 234.689 26.4C235.089 25.4 235.472 24.4333 235.839 23.5C236.205 22.5333 236.522 21.7167 236.789 21.05C237.089 20.35 237.289 19.9 237.389 19.7C236.922 20.2 236.355 20.8333 235.689 21.6C235.055 22.3333 234.455 23.05 233.889 23.75C233.322 24.45 232.889 25 232.589 25.4C232.489 25.5333 232.405 25.6 232.339 25.6C232.272 25.6 232.239 25.5167 232.239 25.35C232.239 25.0833 232.322 24.8333 232.489 24.6C233.122 23.8 233.822 22.9 234.589 21.9C235.389 20.9 236.105 19.9833 236.739 19.15C237.372 18.2833 237.772 17.7167 237.939 17.45C238.305 17.3833 238.839 17.2833 239.539 17.15C240.272 17.0167 240.772 16.8333 241.039 16.6C241.139 16.5 241.239 16.45 241.339 16.45C241.405 16.45 241.439 16.5167 241.439 16.65C241.472 16.75 241.439 16.8667 241.339 17C241.139 17.2 240.839 17.6333 240.439 18.3C240.072 18.9667 239.655 19.7333 239.189 20.6C238.722 21.4667 238.272 22.3 237.839 23.1C238.172 22.6 238.605 22.0167 239.139 21.35C239.705 20.65 240.322 19.9833 240.989 19.35C241.655 18.6833 242.322 18.1333 242.989 17.7C243.689 17.2667 244.339 17.05 244.939 17.05C245.372 17.05 245.739 17.15 246.039 17.35C246.339 17.5167 246.572 17.8333 246.739 18.3C246.839 18.5333 246.889 18.8 246.889 19.1C246.889 19.6667 246.739 20.2167 246.439 20.75C246.172 21.25 245.972 21.6333 245.839 21.9C245.805 22 245.689 22.1 245.489 22.2C245.289 22.2667 245.205 22.2333 245.239 22.1C245.272 21.9333 245.289 21.7667 245.289 21.6C245.322 21.4333 245.339 21.25 245.339 21.05C245.339 20.4833 245.222 19.9667 244.989 19.5C244.789 19.0333 244.405 18.8 243.839 18.8C243.305 18.8 242.655 19.1333 241.889 19.8C241.122 20.4667 240.355 21.2333 239.589 22.1C238.622 23.2333 237.855 24.3167 237.289 25.35C236.722 26.35 236.255 27.3333 235.889 28.3C235.689 28.8333 235.489 29.3667 235.289 29.9C235.089 30.4 234.939 30.8 234.839 31.1C234.405 31.1333 233.972 31.2333 233.539 31.4C233.105 31.6 232.805 31.7 232.639 31.7ZM252.762 31.15C252.428 31.15 252.145 31.0833 251.912 30.95C251.678 30.8167 251.562 30.5667 251.562 30.2C251.562 29.7333 251.678 29.2 251.912 28.6C252.145 28 252.412 27.4167 252.712 26.85C253.012 26.25 253.278 25.7667 253.512 25.4C252.345 26.6333 251.128 27.8 249.862 28.9C249.228 29.4333 248.528 29.9333 247.762 30.4C246.995 30.8667 246.178 31.1 245.312 31.1C244.978 31.1 244.745 31 244.612 30.8C244.478 30.5667 244.412 30.3 244.412 30C244.412 29.8333 244.428 29.7167 244.462 29.65C244.628 28.35 245.045 27 245.712 25.6C246.378 24.2 247.195 22.8833 248.162 21.65C249.128 20.4167 250.112 19.4167 251.112 18.65C252.245 17.7833 253.495 17.35 254.862 17.35H260.612C260.778 17.35 260.862 17.4167 260.862 17.55C260.862 17.8167 260.712 17.95 260.412 17.95C260.078 17.95 259.745 18.1667 259.412 18.6C259.078 19 258.828 19.3333 258.662 19.6C258.428 19.9667 258.062 20.5833 257.562 21.45C257.062 22.3167 256.545 23.2667 256.012 24.3C255.512 25.3 255.078 26.2333 254.712 27.1C254.345 27.9667 254.162 28.6 254.162 29C254.162 29.4667 254.395 29.7 254.862 29.7C255.362 29.7 255.928 29.4667 256.562 29C257.195 28.5333 257.828 27.9667 258.462 27.3C259.128 26.6 259.728 25.9167 260.262 25.25C260.828 24.55 261.278 24 261.612 23.6C261.812 23.8 261.795 24.0833 261.562 24.45C261.362 24.7833 261.178 25.05 261.012 25.25C260.345 26.1167 259.578 27.0167 258.712 27.95C257.845 28.85 256.895 29.6167 255.862 30.25C254.862 30.85 253.828 31.15 252.762 31.15ZM247.362 29.4C247.762 29.4 248.312 29.1167 249.012 28.55C249.745 27.95 250.528 27.2167 251.362 26.35C252.195 25.45 252.978 24.5167 253.712 23.55C254.445 22.55 255.045 21.65 255.512 20.85C256.012 20.0167 256.262 19.3833 256.262 18.95C256.262 18.5833 256.145 18.3333 255.912 18.2C255.712 18.0667 255.445 18 255.112 18C254.578 18 253.995 18.2 253.362 18.6C252.762 18.9667 252.278 19.3333 251.912 19.7C251.512 20.0667 251.028 20.65 250.462 21.45C249.928 22.2167 249.395 23.0667 248.862 24C248.328 24.9333 247.878 25.8333 247.512 26.7C247.145 27.5667 246.962 28.2667 246.962 28.8C246.962 29.2 247.095 29.4 247.362 29.4ZM249.059 42.3C247.759 42.3 246.676 42.0833 245.809 41.65C244.909 41.25 244.309 40.6333 244.009 39.8C243.976 39.7 243.959 39.6 243.959 39.5C243.926 39.4 243.909 39.2833 243.909 39.15C243.909 38.65 244.026 38.0833 244.259 37.45C244.492 36.85 244.742 36.2 245.009 35.5C245.109 35.3 245.226 35.2 245.359 35.2C245.592 35.2 245.659 35.3667 245.559 35.7C245.326 36.2 245.209 36.7333 245.209 37.3C245.209 38.4667 245.726 39.4 246.759 40.1C247.759 40.8333 248.909 41.2 250.209 41.2C251.209 41.2 252.176 40.9667 253.109 40.5C254.676 39.7 255.959 38.6 256.959 37.2C257.959 35.8 258.842 34.3833 259.609 32.95C260.776 30.7167 261.776 28.3833 262.609 25.95C263.476 23.4833 264.392 21.05 265.359 18.65H264.209C264.042 18.65 263.859 18.6667 263.659 18.7C263.459 18.7333 263.276 18.7667 263.109 18.8L263.009 18.75C263.076 18.3833 263.392 18.0667 263.959 17.8C264.559 17.5 265.026 17.35 265.359 17.35H265.959C266.459 16.15 267.042 14.8333 267.709 13.4C268.409 11.9667 269.159 10.5333 269.959 9.1C270.759 7.63333 271.626 6.3 272.559 5.1C273.526 3.9 274.526 2.95 275.559 2.25C277.259 1.05 279.142 0.45 281.209 0.45C281.609 0.45 281.992 0.583333 282.359 0.849998C282.759 1.08333 282.942 1.45 282.909 1.95L282.759 3.75C282.759 3.81666 282.709 3.86666 282.609 3.9C282.509 3.93333 282.442 3.91667 282.409 3.85C282.276 3.18333 281.909 2.7 281.309 2.4C280.742 2.06667 280.076 1.9 279.309 1.9C278.076 1.9 276.942 2.3 275.909 3.1C274.909 3.9 273.826 5.38333 272.659 7.55C272.226 8.38333 271.742 9.36667 271.209 10.5C270.709 11.6333 270.209 12.8 269.709 14C269.209 15.2 268.726 16.3167 268.259 17.35H271.859C272.092 17.35 272.326 17.35 272.559 17.35C272.826 17.3167 273.076 17.2833 273.309 17.25C273.309 17.3833 273.209 17.5167 273.009 17.65C272.842 17.75 272.692 17.8333 272.559 17.9C271.726 18.3333 270.942 18.5833 270.209 18.65C269.476 18.6833 268.642 18.6833 267.709 18.65C266.976 20.4833 266.276 22.2333 265.609 23.9C264.976 25.5333 264.276 27.1333 263.509 28.7C262.876 30.1 262.092 31.5833 261.159 33.15C260.226 34.7167 259.159 36.2 257.959 37.6C256.759 39 255.426 40.1333 253.959 41C252.459 41.8667 250.826 42.3 249.059 42.3ZM271.741 31.15C271.408 31.15 271.124 31.0833 270.891 30.95C270.658 30.8167 270.541 30.5667 270.541 30.2C270.541 29.7333 270.658 29.1833 270.891 28.55C271.158 27.9167 271.441 27.2833 271.741 26.65C272.041 26.0167 272.291 25.5 272.491 25.1C272.658 24.8 272.874 24.3333 273.141 23.7C273.441 23.0333 273.741 22.35 274.041 21.65C274.374 20.9167 274.641 20.3 274.841 19.8C275.074 19.3 275.191 19.05 275.191 19.05C274.891 19.3833 274.491 19.85 273.991 20.45C273.524 21.05 273.008 21.6833 272.441 22.35C271.908 22.9833 271.408 23.5833 270.941 24.15C270.508 24.7167 270.191 25.1333 269.991 25.4C269.891 25.5333 269.808 25.6 269.741 25.6C269.674 25.6 269.641 25.5167 269.641 25.35C269.641 25.0833 269.724 24.8333 269.891 24.6C270.291 24.1 270.774 23.5 271.341 22.8C271.908 22.0667 272.474 21.3333 273.041 20.6C273.641 19.8667 274.158 19.2167 274.591 18.65C274.324 18.65 273.974 18.6667 273.541 18.7C273.141 18.7333 272.774 18.7833 272.441 18.85C272.108 18.8833 271.924 18.9 271.891 18.9C271.724 18.9 271.741 18.7667 271.941 18.5C272.141 18.2333 272.408 17.9667 272.741 17.7C273.074 17.4333 273.324 17.3 273.491 17.3C273.524 17.3 273.791 17.3167 274.291 17.35C274.791 17.35 275.158 17.35 275.391 17.35C276.058 16.45 276.708 15.4167 277.341 14.25C278.008 13.0833 278.658 11.8 279.291 10.4C279.558 10.3667 280.008 10.1833 280.641 9.85C281.308 9.48333 281.824 9.11667 282.191 8.75C282.358 8.58333 282.491 8.5 282.591 8.5C282.791 8.5 282.791 8.63333 282.591 8.9C282.358 9.16667 281.958 9.73333 281.391 10.6C280.824 11.4333 280.191 12.45 279.491 13.65C278.791 14.8167 278.124 16.05 277.491 17.35H281.541C281.908 17.35 282.091 17.4 282.091 17.5C282.091 17.6333 281.841 17.7667 281.341 17.9C280.774 18.0667 280.174 18.1667 279.541 18.2C278.941 18.2333 278.374 18.3 277.841 18.4C277.341 18.5 276.974 18.7167 276.741 19.05C276.541 19.2833 276.258 19.7833 275.891 20.55C275.524 21.3167 275.124 22.2 274.691 23.2C274.291 24.1667 273.941 25.15 273.641 26.15C273.341 27.1167 273.158 27.9333 273.091 28.6V28.8C273.091 29.0667 273.174 29.2833 273.341 29.45C273.508 29.6167 273.674 29.7 273.841 29.7C274.274 29.7 274.824 29.4333 275.491 28.9C276.191 28.3667 276.908 27.7333 277.641 27C278.374 26.2333 279.008 25.5333 279.541 24.9C279.774 24.6333 279.974 24.3833 280.141 24.15C280.341 23.9167 280.458 23.7667 280.491 23.7C280.558 23.8333 280.591 23.9333 280.591 24C280.591 24.2 280.524 24.4167 280.391 24.65C280.291 24.8833 280.174 25.0833 280.041 25.25C279.408 26.0833 278.641 26.9667 277.741 27.9C276.841 28.8 275.874 29.5667 274.841 30.2C273.841 30.8333 272.808 31.15 271.741 31.15Z" fill="#D6A425"/>
</svg>
